<?xml version="1.0" encoding="UTF-8"?>
<svg width="151.82mm" height="155.32mm" version="1.1" viewBox="0 0 537.95945 550.35091" xmlns="http://www.w3.org/2000/svg">
 <g transform="translate(-59.32 -72.605)">
  <path d="m308.55 612.41c-17.841-3.3981-37.041-11.227-55.344-22.567-42.573-26.376-86.703-72.435-115.94-121.01-40.314-66.971-48.797-138.24-25.217-211.85 22.348-69.764 72.144-121.42 137.8-142.94 24.247-7.9485 45.038-11.179 71.94-11.179 130.32 0 230.66 106.57 225.83 239.87-2.1905 60.532-25.036 113.89-74.204 173.31-37.421 45.222-75.13 77.384-104.99 89.546-18.137 7.3871-42.385 10.148-59.871 6.8178zm41.31-11.209c25.415-6.4477 48.006-21.238 79.712-52.187 39.052-38.12 70.417-80.678 87.591-118.85 14.133-31.413 20.684-62.162 20.705-97.179 0.0495-85.753-45.973-161.64-120.26-198.3-66.309-32.721-144.64-29.657-206.8 8.0899-44.551 27.051-77.284 72.295-92.574 127.96-23.128 84.2-3.515 161.62 60.633 239.34 12.427 15.057 39.198 41.74 52.486 52.314 26.019 20.706 53.062 34.923 75.651 39.771 12.113 2.5993 30.45 2.189 42.858-0.95884zm-112.9-151.93c-34.642-5.6165-65.53-28.326-82.254-60.475-11.949-22.97-12.943-48.953-2.495-65.219 14.928-23.24 45.341-29.548 78.192-16.218 50.333 20.424 82.085 78.973 63.057 116.28-3.1163 6.1092-11.543 15.002-17.555 18.525-10.256 6.0112-26.938 9.0568-38.944 7.1101zm142.06-8.506c-16.997-4.5773-28.239-15.779-32.973-32.853-9.5919-34.595 18.736-82.868 61.831-105.36 12.632-6.5935 22.462-9.7689 35.675-11.524 8.2868-1.1008 11.1-1.0094 19.136 0.62165 25.756 5.2282 39.28 21.872 39.319 48.391 0.0724 49.362-55.665 102.76-106.88 102.39-5.6228-0.0406-12.871-0.78674-16.106-1.6582zm-21.154-68.323c0.53194-3.9507 0.42216-5.0665-0.37204-3.7814-1.5956 2.5818-4.5482 14.356-4.4507 17.748 0.11716 4.0733 3.8488-6.7334 4.8227-13.966z"/>
  <rect x="352.32" y="367.14" width="7.875" height="23.625"/>
 </g>
</svg>
